<svg width="83" height="82" viewBox="0 0 83 82" fill="none" xmlns="http://www.w3.org/2000/svg">
<path d="M72.704 25.7145C72.6199 25.7566 72.6199 25.8408 72.6199 25.925C72.6199 26.0933 72.5779 26.2617 72.746 26.3879C72.788 26.43 72.788 26.5142 72.788 26.5562C72.83 26.7246 72.83 26.935 72.9561 27.0613C73.2923 27.4401 73.5024 27.903 73.9227 28.2397C74.0488 28.3659 74.2589 28.4501 74.3429 28.5764C74.5951 28.9131 75.0153 29.1235 75.3095 29.4181C75.5617 29.6285 75.8559 29.839 76.108 30.0494C76.2341 30.1757 76.3602 30.3019 76.5283 30.3861C76.7384 30.4702 76.9065 30.6386 77.0326 30.8069C77.2427 31.1857 77.5369 31.5224 77.747 31.9012C77.9571 32.2799 78.0412 32.7429 78.3353 33.0796C78.3774 33.1217 78.3774 33.1638 78.3353 33.2058C78.2933 33.4584 78.3774 33.6688 78.5034 33.8792C78.5875 34.0055 78.5875 34.1317 78.5875 34.258C78.5875 34.5105 78.6295 34.763 78.7136 35.0155C78.8817 35.3943 78.9657 35.7731 78.9657 36.1939C78.9657 36.3623 78.9657 36.4885 79.0498 36.6148C79.1338 36.8252 79.2599 37.0777 79.2179 37.2882C79.1758 38.1299 79.3439 38.9716 79.3439 39.8133C79.3439 40.1921 79.3439 40.5288 79.3439 40.9076C79.3439 41.4968 79.3439 42.086 79.3439 42.7173C79.3439 42.8014 79.3019 42.9277 79.428 43.0119C79.47 43.0119 79.47 43.054 79.5121 43.096C79.5121 43.054 79.5541 43.054 79.5541 43.0119C79.5961 42.4648 79.6381 41.9176 79.6381 41.3705C79.6381 40.15 79.6381 38.8874 79.6381 37.6669C79.6381 37.204 79.5121 36.7831 79.386 36.3623C79.3019 36.0256 79.3019 35.731 79.428 35.4785C79.47 35.3943 79.5121 35.268 79.5121 35.1839C79.5121 35.1418 79.5541 35.0576 79.5541 35.0155C79.6381 34.8893 79.8062 34.8051 79.8482 34.6368C79.9323 34.5947 79.9743 34.4684 80.0164 34.3842C80.1004 34.3422 80.2265 34.258 80.2265 34.1317C80.6888 33.6267 81.067 33.0796 81.4452 32.5325C81.5713 32.3641 81.7814 32.2379 81.8234 31.9853C81.8234 31.7749 81.9495 31.6487 82.0336 31.4382C82.1596 31.1857 82.2437 30.9332 82.2437 30.6386C82.2437 30.3861 82.2017 30.1756 82.2437 29.9231C82.2857 29.6285 82.1596 29.376 81.9495 29.2077C81.7814 29.0814 81.4872 29.0814 81.2771 29.1656C80.8148 29.376 80.6888 29.839 80.4786 30.2598C80.3946 30.4282 80.2685 30.4702 80.2265 30.6386C80.1845 30.7649 80.1845 30.9332 80.1424 31.0595C80.1424 31.1015 80.1004 31.1015 80.0584 31.1436C79.8903 31.2699 79.8483 31.4382 79.8903 31.6487C79.8903 31.8591 79.8903 32.0695 79.6802 32.2379C79.6381 32.2379 79.5961 32.322 79.5961 32.3641C79.5961 32.5325 79.5961 32.7008 79.5961 32.8691C79.5541 33.0375 79.47 33.2058 79.428 33.3742C79.3439 33.6688 79.3439 34.0055 79.1338 34.3001C78.9237 34.5526 79.0498 34.763 79.386 34.8051C79.344 34.8893 79.3019 34.9734 79.2179 35.0155C79.1758 35.0576 79.1338 35.0576 79.0918 35.0576C79.0498 35.0576 79.0498 34.9734 79.0498 34.9734C79.0078 34.7209 79.0078 34.4263 78.9657 34.1738C78.9657 34.1317 78.9237 34.0896 78.8817 34.0055C78.8396 33.9213 78.7976 33.8792 78.7976 33.795C78.7556 33.6267 78.7136 33.4583 78.7136 33.29C78.7136 33.0796 78.4614 32.9954 78.4614 32.8271C78.4614 32.785 78.4194 32.7429 78.4194 32.7008C78.5035 32.4062 78.3354 32.1958 78.2093 31.9853C78.1673 31.9433 78.1252 31.8591 78.1252 31.817C78.1252 31.5645 77.9571 31.3961 77.8731 31.1857C77.831 31.1015 77.747 31.0595 77.789 31.0174C77.8311 30.7228 77.6629 30.4282 77.705 30.1336C77.705 29.9231 77.705 29.7127 77.705 29.4602C77.705 29.4181 77.705 29.3339 77.705 29.2918C77.747 29.0393 77.789 28.7868 77.789 28.5343C77.789 28.6185 77.789 28.7447 77.789 28.8289C77.789 28.871 77.831 28.9131 77.831 28.9131C77.8731 28.9131 77.9151 28.9131 77.9571 28.9131C77.9991 28.871 78.0412 28.871 78.0412 28.8289C78.0832 28.4922 78.2513 28.2397 78.4194 27.9872C78.4614 27.9451 78.4194 27.8609 78.4614 27.8188C78.4614 27.7767 78.4614 27.6505 78.5034 27.6505C78.7556 27.5242 78.7556 27.2296 78.7976 27.0192C78.8396 26.8509 78.8817 26.6404 78.9657 26.4721C79.0078 26.3458 78.9657 26.1775 78.9657 26.0512C78.9237 25.925 78.8396 25.7987 78.7976 25.6304C78.6715 25.2095 78.2093 24.9149 77.8731 24.9991C77.8731 24.9991 77.8731 24.9991 77.831 24.9991C77.6209 24.9991 77.4528 25.1253 77.3688 25.2937C77.2847 25.4199 77.2007 25.5041 77.1166 25.6724C77.0326 25.8829 77.0746 26.1354 76.9905 26.3458C76.9065 26.5562 76.8645 26.8088 76.9485 26.9771C76.9485 27.0192 76.9485 27.0192 76.9485 27.0613C76.9485 27.1455 76.9485 27.2296 76.9065 27.3138C76.8224 27.9451 76.9065 28.5764 76.9905 29.2497H76.9485C76.9065 29.2497 76.9065 29.2497 76.8645 29.2497L76.8224 29.2077C76.8224 29.2077 76.8224 29.1656 76.8224 29.1235C76.8224 29.0393 76.7804 28.9552 76.7384 28.9131C76.6123 28.7868 76.5283 28.6185 76.4442 28.4501C76.3181 28.2397 76.1921 28.0713 76.108 27.903C75.9399 27.6084 75.6457 27.398 75.4776 27.0613H75.4356C75.0574 26.5563 74.6791 26.0512 74.3009 25.5041C74.0488 25.1253 73.5445 25.0832 73.1662 25.4199C72.9561 25.2937 72.788 25.5041 72.704 25.7145ZM81.6553 29.4181C81.7394 29.4181 81.7814 29.4602 81.7814 29.5444C81.7394 29.5444 81.7394 29.5023 81.6974 29.5023C81.6133 29.4602 81.5713 29.4602 81.4872 29.4602C81.5713 29.4181 81.6133 29.376 81.6553 29.4181Z" fill="#F75163"/>
<path d="M80.268 50.7136C80.1419 50.6294 80.0578 50.6294 79.7637 50.6294C79.6796 50.6294 79.5536 50.5874 79.4695 50.6715C79.2594 50.924 78.9232 51.0503 78.7551 51.387C78.7131 51.4291 78.629 51.4712 78.587 51.5553C78.5449 51.5553 78.5029 51.5132 78.5029 51.4712C78.4609 51.1766 78.4189 50.882 78.629 50.6715C78.7131 50.5453 78.7971 50.4611 78.7551 50.2927C78.7551 50.2086 78.7971 50.1244 78.8391 50.0402C78.8812 49.8719 79.0072 49.7035 79.0493 49.5352C79.0913 49.3248 79.1333 49.1564 79.1333 48.946C79.1333 48.5672 79.0913 48.1464 79.0493 47.7676C79.0493 47.7255 79.0072 47.7255 79.0072 47.6834C78.9652 47.6413 78.9232 47.6413 78.9232 47.5992C78.9232 47.6413 78.8811 47.6413 78.8811 47.6834C78.8391 47.7676 78.7971 47.8518 78.7971 47.9359C78.7971 48.2305 78.7971 48.5251 78.713 48.8618C78.629 49.0723 78.7971 49.2827 78.629 49.4931C78.4609 49.6615 78.629 49.9561 78.4609 50.1244C78.4189 50.1665 78.4189 50.2927 78.3768 50.3769C78.3348 50.4611 78.2508 50.4611 78.2088 50.3769C78.1667 50.3348 78.1667 50.2928 78.1667 50.2507C78.1667 50.0402 78.2088 49.7877 77.9146 49.7035C77.8725 49.7035 77.8725 49.5773 77.8725 49.5352C77.9146 49.3248 77.8305 49.1985 77.7044 49.0723C77.6624 49.0302 77.6204 48.9881 77.6204 48.946C77.4943 48.6935 77.1581 48.2305 77.032 48.1043C76.6538 47.8939 76.2756 48.0622 76.1915 48.3568C76.1075 48.5672 76.0234 48.7777 76.0234 48.9881C76.0234 49.1564 76.0234 49.3669 76.0234 49.5352C76.0234 49.914 76.0655 50.2507 76.1075 50.6294C76.1495 51.2607 76.4017 51.8078 76.6538 52.397C76.8219 52.8179 77.1161 53.1967 77.4103 53.5755C77.4523 53.6175 77.4943 53.7017 77.5363 53.7438C77.5363 53.7859 77.5784 53.7859 77.5784 53.828C77.6204 53.8701 77.7465 53.9542 77.7885 53.9542C77.8305 53.9542 77.8305 53.9542 77.8725 53.9121C78.1667 53.9963 78.3769 53.8701 78.629 53.6596C78.8391 53.4492 79.0493 53.2809 79.2594 53.1125C79.4275 53.0283 79.5535 52.9442 79.6376 52.8179C79.6796 52.8179 79.7217 52.7758 79.7217 52.7758C79.6796 52.86 79.5956 52.9021 79.5535 52.9863C79.5535 53.0283 79.5535 53.0704 79.5535 53.1125C79.5956 53.1546 79.6376 53.1546 79.6796 53.1546C79.9738 52.86 80.268 52.5654 80.4361 52.1866C80.4361 52.1866 80.4361 52.1445 80.4781 52.1445C80.5622 52.0183 80.6042 51.9341 80.6882 51.8078C80.6882 51.8078 80.6882 51.8078 80.6882 51.7658C80.7303 51.7237 80.7723 51.5974 80.7723 51.4712C80.6882 50.924 80.5622 50.7136 80.268 50.7136ZM76.8639 48.5251C76.8219 48.4831 76.7799 48.483 76.7799 48.441C76.8219 48.441 76.8639 48.4831 76.8639 48.5251ZM77.3262 49.1564C77.3262 49.1564 77.3683 49.1564 77.3683 49.1985C77.3683 49.1985 77.4103 49.2406 77.4103 49.2827C77.3682 49.2406 77.3262 49.1985 77.3262 49.1564ZM77.6204 49.7456C77.6624 49.8298 77.7885 49.914 77.7885 49.9981C77.7885 50.0402 77.7885 50.0823 77.7885 50.1244C77.7465 49.9981 77.7044 49.8719 77.6204 49.7456ZM77.8305 50.2086C77.8725 50.2507 77.8725 50.2927 77.9146 50.3348C78.0406 50.419 78.0406 50.5453 78.0406 50.6715C78.0406 50.882 78.0406 51.0924 78.0827 51.3449C78.0406 50.924 77.9566 50.5874 77.8305 50.2086ZM78.1247 51.4291C78.1247 51.387 78.1247 51.387 78.1247 51.387C78.1247 51.4291 78.1247 51.4712 78.1667 51.5132C78.1247 51.4712 78.1247 51.4291 78.1247 51.4291Z" fill="#F75163"/>
<path d="M70.9799 15.8664C71.106 16.2031 71.5263 16.3715 71.6523 16.7082C71.8204 16.7082 71.8625 16.9186 71.9465 17.0028C72.0726 17.129 72.1987 17.2132 72.2407 17.3815C72.2827 17.5499 72.4508 17.5499 72.4928 17.6761C72.6609 17.9707 72.8711 18.2233 73.0812 18.4758C73.2493 18.7283 73.5014 18.8966 73.5435 19.2333C73.5435 19.2333 73.6275 19.2754 73.6695 19.2754L73.7116 19.2333C73.7116 19.1492 73.6696 19.065 73.6275 18.9808C73.4594 18.7704 73.3754 18.4758 73.1232 18.2654C72.9131 17.6761 72.4088 17.2974 72.0726 16.7503C71.9885 16.5819 71.8625 16.4557 71.7364 16.3294C71.5683 16.2031 71.5683 15.9506 71.3582 15.9085C71.0219 15.3193 70.5597 14.8985 70.0974 14.3934C69.3409 13.5938 68.5005 12.8363 67.702 12.0787C67.66 12.0366 67.6599 11.9945 67.6179 11.9945C67.2817 11.8262 67.0716 11.5737 66.9035 11.237C66.8615 11.1949 66.8194 11.1107 66.7354 11.0686C66.7354 10.8582 66.7354 10.6899 66.6934 10.5215C66.7354 10.4374 66.6934 10.3953 66.6934 10.3111C66.6513 10.1848 66.5673 10.0586 66.4832 9.93232V9.89023C66.4832 9.84815 66.4412 9.80607 66.4412 9.76398C66.3572 9.34312 66.147 8.96434 65.8529 8.66974C65.6427 8.5014 65.3906 8.5014 65.2225 8.71183C65.0544 8.92226 64.9703 9.1327 65.0964 9.4273C65.0964 9.46938 65.1384 9.51147 65.1384 9.55355C65.0964 9.63772 65.0544 9.7219 65.0124 9.76398C64.9703 9.80607 64.8863 9.72189 64.8442 9.6798C64.7602 9.59563 64.6761 9.46938 64.5921 9.4273C64.0878 9.21687 63.8356 8.71184 63.4574 8.37515C63.3734 8.29098 63.3734 8.24889 63.4574 8.16472C63.6675 8.03846 63.5835 7.78593 63.6675 7.57551C63.7516 7.36508 63.6675 7.11256 63.5415 6.94422C63.3734 6.64961 63.2893 6.31293 62.8691 6.22876C62.6169 6.18668 62.2807 6.35501 62.2807 6.56544C62.2807 6.94422 62.2387 7.2809 62.4908 7.57551C62.4908 7.65968 62.4908 7.74385 62.4908 7.82802C62.3648 7.82802 62.2387 7.82802 62.1967 7.78593C62.0286 7.57551 61.7764 7.49133 61.5663 7.36508C61.2301 7.19673 60.9779 6.94422 60.6417 6.77587C60.3055 6.60753 60.0534 6.35501 59.8012 6.1025C59.7172 6.01832 59.6331 5.93416 59.6751 5.76581C59.7592 5.38704 59.507 5.09244 59.381 4.75575C59.3389 4.58741 59.0868 4.50323 58.9607 4.41906C58.8346 4.33488 58.5405 4.50323 58.4564 4.67158C58.3303 4.96618 58.4144 5.2187 58.5825 5.42913C58.6245 5.47122 58.6665 5.5133 58.5405 5.55538C58.4144 5.55538 58.3303 5.55538 58.2043 5.47121C58.0782 5.42912 58.0361 5.26078 57.9101 5.26078C57.5318 5.21869 57.2377 4.882 56.8594 4.83992C56.6073 4.54532 56.145 4.58741 55.8508 4.2928C55.7668 4.20863 55.6407 4.25071 55.5147 4.20863C55.3045 4.12445 55.1364 4.08238 54.9683 3.95612C54.7582 3.82986 54.5481 3.82986 54.3379 3.74569C53.9177 3.53526 53.4554 3.45108 53.0772 3.19857C53.0351 3.15648 52.9931 3.15648 52.9511 3.15648C52.741 3.19856 52.5309 3.07231 52.3628 2.98814C52.2787 2.94605 52.1526 2.90397 52.0686 2.90397C51.7744 2.90397 51.4802 2.77771 51.2281 2.69354C51.0179 2.60937 50.8498 2.52519 50.6397 2.52519C50.5136 2.52519 50.4296 2.48311 50.3035 2.44102C50.0514 2.31477 49.7572 2.18851 49.463 2.23059C49.3369 2.23059 49.2108 2.23059 49.0848 2.14642C48.8326 1.97807 48.5384 1.8939 48.2443 1.93599C48.0341 1.97807 47.782 1.93599 47.5719 1.85182C47.0676 1.64139 46.5633 1.55722 46.059 1.55722C45.9329 1.55722 45.7648 1.55722 45.6387 1.55722C45.5967 1.55722 45.5126 1.55721 45.4706 1.51513C45.3025 1.34678 45.0503 1.43096 44.8822 1.34679C44.6721 1.26261 44.462 1.26261 44.2519 1.26261C42.5288 1.30469 40.8058 1.17844 39.0828 1.34679C38.7466 1.38887 38.4104 1.34679 38.0321 1.34679C37.5278 1.34679 37.0235 1.34679 36.5192 1.34679C36.4772 1.34679 36.3511 1.43095 36.3511 1.47304C36.3091 1.5993 36.4352 1.51513 36.5192 1.55722C36.7294 1.5993 36.9815 1.64139 37.1916 1.64139C37.6539 1.64139 38.1162 1.68347 38.5785 1.55722C38.9147 1.47304 39.2509 1.51513 39.6291 1.55722C39.9653 1.5993 40.3015 1.43095 40.6377 1.47304C40.8899 1.47304 41.184 1.43096 41.4362 1.55722C42.1086 1.47304 42.781 1.68348 43.4534 1.64139C43.8316 1.64139 44.1678 1.59931 44.546 1.64139C44.9243 1.68348 45.3025 1.72556 45.6807 1.85182C45.7228 1.85182 45.8068 1.8939 45.8488 1.8939C46.2271 1.8939 46.6053 2.06225 46.9835 1.97808C47.0676 1.97808 47.1516 2.02017 47.2357 2.06225C47.6139 2.14642 47.9501 2.31477 48.3283 2.27268C48.4964 2.27268 48.7065 2.31476 48.8746 2.39894C49.2949 2.56728 49.7151 2.65145 50.1354 2.73562C50.5557 2.81979 50.9339 2.98814 51.3541 3.07231C51.7324 3.15649 52.0686 3.36691 52.4468 3.409C52.6149 3.409 52.783 3.61943 52.9931 3.66151C53.2033 3.7036 53.4554 3.66151 53.6235 3.87194C53.6655 3.91403 53.7496 3.95612 53.8336 3.95612C54.1698 3.99821 54.464 4.16655 54.7582 4.33489C55.1364 4.29281 55.3886 4.62949 55.7668 4.67158C55.9769 4.67158 56.145 4.88201 56.3552 4.96618C56.5653 5.00827 56.7754 5.09243 56.9435 5.26078C56.9435 5.30286 57.0275 5.26078 57.0696 5.30287C57.1956 5.34495 57.2797 5.34496 57.4058 5.38704C57.5319 5.42913 57.6159 5.63956 57.784 5.55538C57.826 5.72373 58.1622 5.55539 58.1202 5.8079C58.2463 5.84999 58.4144 5.89207 58.5405 5.93415C58.5825 5.97624 58.6665 6.01833 58.6665 6.06042C58.6665 6.10251 58.6245 6.14458 58.6245 6.14458C58.5825 6.14458 58.5405 6.14458 58.4984 6.14458C58.4564 6.14458 58.4144 6.14459 58.3724 6.18667C58.3303 6.18667 58.3303 6.18667 58.2883 6.18667C58.0782 6.14459 58.0362 6.18667 57.9521 6.31293C57.826 6.48127 57.9521 6.60753 57.9521 6.77587C57.9521 7.02839 58.1202 7.11256 58.2883 7.15465C58.4984 7.19673 58.6665 7.36508 58.8767 7.15465C58.9187 7.11256 59.0027 7.15465 59.0448 7.15465C59.2129 7.11256 59.381 7.11257 59.5911 7.07048C59.7172 7.0284 59.6751 6.94423 59.6751 6.90214C59.7592 6.86005 59.8012 6.86005 59.8433 6.77587C59.9273 6.81796 59.9693 6.81797 60.0534 6.86005C60.3896 6.90214 60.5997 7.23882 60.9779 7.23882C61.146 7.49134 61.3982 7.57551 61.6503 7.70177C61.9445 7.87011 62.1966 8.12263 62.5329 8.16472C62.6589 8.16472 62.6169 8.24889 62.5749 8.33306C62.5329 8.41723 62.4488 8.45931 62.3227 8.45931C62.0706 8.41723 61.8184 8.50141 61.5663 8.37515C61.4822 8.33306 61.3561 8.41722 61.2721 8.41722C61.0199 8.5014 60.9359 8.71183 60.7678 8.83808C60.7258 8.88017 60.7258 8.92226 60.7258 8.96435C60.7678 9.13269 60.8098 9.30104 60.9779 9.38521C61.146 9.46938 61.3141 9.59563 61.4822 9.6798C61.5663 9.72189 61.6924 9.76398 61.7764 9.76398C62.1126 9.76398 62.4488 9.76398 62.743 9.76398C62.9111 9.76398 63.0372 9.67981 63.2053 9.59564C63.2473 9.59564 63.2473 9.51147 63.2893 9.4273C63.4154 9.34313 63.4995 9.21687 63.4995 9.00644C63.4995 8.96435 63.4995 8.92226 63.4995 8.92226C63.5415 8.96435 63.5415 9.04852 63.5835 9.13269C63.6255 9.25895 63.7096 9.34312 63.8356 9.34312C64.0878 9.38521 64.3399 9.4273 64.508 9.63773C64.5921 9.76399 64.7602 9.80606 64.8863 9.89023C65.1805 10.0586 65.4326 10.2269 65.6427 10.4794C65.6007 10.4794 65.5167 10.4794 65.4326 10.4374C65.0544 10.3111 64.7182 10.1428 64.466 10.1428C64.1298 10.1428 63.9197 10.1007 63.7936 10.3532C63.7516 10.3532 63.7096 10.3532 63.6675 10.3532C63.4994 10.3953 63.2893 10.5215 63.2893 10.732C63.2893 10.8582 63.3734 10.9845 63.4574 11.1107C63.6255 11.2791 63.7936 11.4895 64.0878 11.5316C64.1718 11.5316 64.2559 11.6579 64.34 11.6999C64.382 11.742 64.424 11.742 64.508 11.7841C64.6341 11.8262 64.7602 11.8683 64.8863 11.8683C65.0124 11.8683 65.1805 11.8683 65.3065 11.8683C65.3906 11.8683 65.5167 11.8683 65.6007 11.8683C65.6848 11.8683 65.8528 11.9524 65.8949 11.7841V11.742C66.063 11.7841 66.2311 11.7841 66.3992 11.8262C66.6934 11.8683 66.8615 11.7841 66.9875 11.5737C67.0296 11.6158 67.0716 11.6579 67.1136 11.6999C67.4918 11.9945 67.9121 12.2891 68.2903 12.6258C68.7526 13.0467 69.2149 13.5096 69.6771 13.9305C70.2235 14.4355 70.7278 15.0247 71.2321 15.5718C70.9379 15.8244 70.9799 15.8244 70.9799 15.8664ZM58.2883 7.07048C58.2463 7.07048 58.1202 7.02839 58.1202 7.02839V6.9863C58.1622 6.9863 58.2463 7.0284 58.2883 7.07048C58.3724 7.07048 58.4144 7.07048 58.4564 7.07048C58.3724 7.07048 58.3303 7.07048 58.2883 7.07048ZM61.3561 9.46937C61.4402 9.46937 61.5243 9.51146 61.5663 9.51146C61.4822 9.51146 61.3982 9.51146 61.3561 9.46937ZM63.7096 11.1949C63.6676 11.1528 63.6675 11.1107 63.6675 11.0686C63.7096 11.1107 63.7096 11.1528 63.7096 11.1949Z" fill="#F75163"/>
<path d="M16.2217 72.5563C16.4318 72.5984 16.4738 72.8509 16.684 72.8509C16.8941 72.8509 16.9781 73.1034 17.1462 73.1876C17.3143 73.2297 17.4824 73.3559 17.6505 73.4822C17.8186 73.6084 17.9868 73.6505 18.1549 73.7768C18.2389 73.8609 18.407 73.8189 18.5751 73.8189C18.5751 73.8189 18.6171 73.7347 18.6171 73.6926C18.5751 73.6084 18.4911 73.5242 18.365 73.5242C18.1969 73.5242 18.1128 73.5242 18.0708 73.3138C18.0708 73.2717 18.0288 73.2296 17.9867 73.2296C17.7766 73.2296 17.6926 73.0613 17.5245 72.9771C17.3143 72.8509 17.1463 72.6825 16.9782 72.5984C16.768 72.5142 16.5999 72.3458 16.4318 72.2196C15.7594 71.7987 15.1711 71.2516 14.6247 70.7466C13.7422 69.9049 12.9017 69.0631 12.1452 68.0952C11.767 67.5901 11.4728 67.0851 11.1787 66.538C11.0526 66.3275 11.0106 66.1171 10.8424 65.9067C10.7584 65.8225 10.6744 65.6542 10.8004 65.4437C10.8845 65.2754 10.8425 64.9808 10.8004 64.7704C10.7584 64.602 10.6743 64.4337 10.6323 64.2653C10.5903 64.0549 10.6323 63.8866 10.5483 63.6761C10.5063 63.5078 10.5483 63.2974 10.5483 63.129C10.5483 62.8765 10.6323 62.624 10.5483 62.4556C10.4222 62.2452 10.5483 62.0348 10.4222 61.8664C10.2961 61.6981 10.3802 61.4035 10.2961 61.2351C10.2121 60.9826 10.2541 60.6459 10.0019 60.4776C9.95992 60.4355 9.95993 60.3513 9.95993 60.3093C9.79183 59.8884 9.45564 59.5938 9.07741 59.3413C9.03538 59.3413 8.99335 59.2992 8.99335 59.2992C8.95133 59.3413 8.86727 59.3834 8.82524 59.4254C8.44701 59.3413 8.11081 59.2992 7.90068 59.4254C7.56448 59.678 7.52246 60.4355 7.77461 61.0668C8.19486 62.0348 8.44701 63.0448 8.95131 64.0128C8.78321 64.0128 8.61512 63.9707 8.48904 63.9287C8.40499 63.8024 8.27892 63.7182 8.15285 63.634C7.81665 63.4657 7.6065 63.2132 7.2703 63.0869C6.9341 62.9607 6.63993 62.7502 6.30373 62.624C6.17765 62.5819 6.05157 62.624 5.88347 62.6661C5.50525 62.7502 5.25311 63.0448 5.08501 63.3815C5.04298 63.4236 5.04297 63.5078 5.04297 63.592C5.04297 63.6761 5.50525 64.2653 5.54728 64.3074C5.67335 64.4758 5.88347 64.5599 6.0936 64.6862C6.38778 64.8125 6.72397 64.8966 7.06018 64.8966C7.18625 64.8966 7.35435 64.8966 7.48043 64.8966C7.56448 64.8966 7.6065 64.9387 7.69055 64.9387C7.77461 64.9387 7.85866 64.9808 7.90068 65.0229C8.19486 65.1912 8.48905 65.1912 8.78323 65.1912C8.9093 65.2333 9.03536 65.2754 9.16144 65.3175C9.32954 65.4858 9.5817 65.4858 9.7498 65.6542C9.87588 65.7804 10.044 65.8646 10.128 65.9909C10.3382 66.2855 10.5063 66.6221 10.7164 66.9167C11.1366 67.548 11.5569 68.1372 12.0612 68.6844C12.1873 68.8106 12.2713 68.9369 12.3974 69.0631C12.4814 69.1473 12.5655 69.2315 12.6496 69.3577C12.5655 69.3157 12.4814 69.3156 12.3974 69.2736C12.1452 69.2315 11.8931 69.1894 11.6409 69.1473C11.6409 69.1052 11.5569 69.1052 11.5149 69.1052C11.3468 69.1473 11.2207 69.0631 11.0946 68.9369C10.9685 68.8106 10.8004 68.6844 10.5903 68.7264C10.4222 68.7685 10.2961 68.7265 10.1701 68.5581C10.086 68.4319 9.95993 68.4318 9.83386 68.4318C9.49766 68.3898 9.11943 68.3898 8.78323 68.2214C8.53108 68.1372 8.27892 68.0952 8.06879 68.0531C7.64854 68.011 7.14423 67.9268 6.85005 68.3898H6.80803C6.72398 68.4739 6.59791 68.516 6.59791 68.6002C6.59791 68.8106 6.47184 69.021 6.68196 69.2315C6.97614 69.484 7.18626 69.9049 7.64854 69.9469C7.85867 70.2415 8.19486 70.2415 8.53106 70.2415C8.57309 70.2415 8.65715 70.2415 8.69917 70.2836C8.86727 70.3257 9.03538 70.4099 9.20348 70.452C9.37158 70.4941 9.58171 70.452 9.83386 70.452C9.87588 70.452 9.91789 70.452 10.0019 70.452C10.6743 70.5361 11.3468 70.6203 12.0612 70.452C12.2293 70.452 12.3974 70.452 12.5655 70.452C12.7756 70.452 13.0278 70.452 13.1538 70.2836C13.49 70.5361 13.8683 70.7045 14.1625 70.9991C14.4146 71.2516 14.6668 71.5462 15.003 71.7146C15.1711 71.8408 15.2551 72.0092 15.4652 72.0933C15.5913 72.1354 15.6754 72.2196 15.8014 72.3038C15.8855 72.3038 16.0116 72.4721 16.2217 72.5563Z" fill="#F75163"/>
<path d="M3.9924 31.1015C3.78227 31.1857 3.48811 31.1436 3.32001 31.3961C3.27798 31.4382 3.19392 31.4382 3.15189 31.4803C3.06784 31.5644 2.94177 31.6065 2.8157 31.7328C2.68962 31.9011 2.43746 31.9853 2.22733 32.1537C2.10126 32.2799 2.01722 32.2799 1.97519 32.0695C1.97519 32.0274 1.84911 31.9432 1.80708 31.9432C1.68101 31.9432 1.76508 32.0695 1.72305 32.1116C1.59698 32.2799 1.639 32.4482 1.639 32.6587C1.639 32.827 1.639 32.9954 1.639 33.1216C1.639 33.2058 1.55493 33.3321 1.47088 33.3741C1.38683 33.4162 1.26075 33.3741 1.1767 33.2479C1.09265 33.1637 1.0086 33.0795 0.966576 32.9533C0.924551 32.8691 0.882541 32.827 0.79849 32.7849C0.420263 32.6166 0 32.827 0 33.2479C0 33.6267 0 34.0054 0 34.3842C0 34.6788 0.0420304 34.9313 0.294182 35.0997C0.378232 35.1838 0.378238 35.268 0.378238 35.3943C0.378238 35.5205 0.378227 35.6889 0.420253 35.8151C0.420253 35.8572 0.462283 35.8993 0.504308 35.8993C0.504308 35.8572 0.546323 35.8572 0.546323 35.8151C0.588348 35.8572 0.672399 35.8993 0.756449 35.8993C0.8405 35.8993 0.882536 35.8572 0.924561 35.8572C0.924561 36.0256 0.966581 36.1518 0.840505 36.2781C0.966581 36.4043 0.924561 36.5727 0.924561 36.741C0.924561 37.1619 0.966581 37.5827 0.840505 38.0036C0.756455 38.2561 0.798475 38.5507 0.756449 38.8032C0.714424 39.2662 0.630379 39.687 0.630379 40.1921C0.672404 41.118 0.630379 42.0438 0.630379 42.9697C0.630379 43.3485 0.798485 43.7694 0.714435 44.1482C0.924561 44.4007 0.798495 44.7373 0.882546 45.0319C0.966596 45.3266 0.924561 45.6632 0.924561 45.9999C0.924561 46.1683 0.924561 46.3787 0.924561 46.547C0.924561 46.8416 0.966596 47.0942 1.09267 47.3467C1.26077 47.8096 1.38684 48.2305 1.34481 48.6934C1.34481 48.7776 1.34481 48.8618 1.34481 48.988C1.34481 49.1564 1.34482 49.3247 1.51292 49.451C1.59698 49.5351 1.68102 49.7035 1.639 49.8718C1.59697 50.0823 1.639 50.2927 1.639 50.5452C1.639 50.6715 1.72304 50.7977 1.76507 50.924C1.76507 50.924 1.8071 50.9661 1.84912 50.9661C1.89115 50.9661 1.93318 50.924 1.93318 50.924C1.93318 50.5873 2.01721 50.2506 1.89114 49.9139C1.80709 49.7035 1.72304 49.4931 1.68101 49.2826C1.63899 49.0301 1.68101 48.7776 1.68101 48.5251C1.68101 48.3988 1.68101 48.2726 1.68101 48.1463C1.68101 48.0621 1.63898 47.978 1.59695 47.8938C1.5129 47.4309 1.38683 47.01 1.38683 46.505C1.38683 45.9158 1.4709 45.2845 1.3028 44.6953C1.38685 44.4007 1.21874 44.1061 1.21874 43.8115C1.21874 43.5169 1.21874 43.1802 1.21874 42.8856C1.21874 41.9597 1.21874 40.9917 1.21874 40.0658C1.21874 39.8133 1.17672 39.5187 1.3028 39.2662C1.38685 39.0557 1.3028 38.8032 1.3028 38.5507C1.3028 38.3403 1.38683 38.0878 1.38683 37.8773C1.42885 37.3723 1.38683 36.8673 1.47088 36.3622C1.55493 35.8572 1.68101 35.3522 1.68101 34.8472C1.68101 34.5526 1.89115 34.2579 2.05925 34.0054C2.26937 33.7108 2.60558 33.5004 2.89975 33.29C3.44608 32.8691 3.9924 32.4482 4.28658 31.7749C4.37063 31.5224 4.41265 31.5224 4.3286 31.2698C4.24455 31.1015 4.1605 31.0173 3.9924 31.1015ZM0.924561 33.5425C0.924561 33.5846 0.966576 33.5846 0.966576 33.6267C1.05063 33.7529 1.05063 33.9633 1.05063 34.1317C1.05063 33.9213 0.966586 33.7529 0.924561 33.5425ZM3.61419 32.0695L3.57215 32.1116C3.6562 31.9853 3.69824 31.7749 3.61419 31.6065C3.69824 31.6065 3.74026 31.6907 3.74026 31.859C3.69823 31.9432 3.69824 32.0274 3.61419 32.0695Z" fill="#F75163"/>
<path d="M23.1131 74.7868C23.0711 74.7447 23.029 74.7026 23.029 74.6184C22.987 74.3659 22.8189 74.1976 22.7349 73.9871C22.6508 73.7767 22.6088 73.5242 22.3987 73.3558C22.3566 73.3558 22.3987 73.2717 22.3567 73.2296C22.3146 73.1033 22.2726 73.0191 22.2306 72.8929C22.0205 72.5983 21.8524 72.3037 21.6843 71.967C21.5582 71.7145 21.3901 71.462 21.222 71.2094C20.9698 70.8307 20.7597 70.4519 20.4655 70.1152C20.1713 69.7364 19.8772 69.3577 19.541 68.9789C19.3308 68.7685 19.0787 68.558 18.8686 68.3897C18.7845 68.3055 18.2802 68.1372 18.1541 68.1793C18.1121 68.1793 18.028 68.2213 17.986 68.2634C17.6498 68.558 17.4397 68.9368 17.5658 69.3577C17.6498 69.6523 17.7339 69.9889 17.8179 70.2835C17.86 70.4098 17.8599 70.5361 17.986 70.6623C18.0701 70.7465 18.1121 70.8728 18.1121 70.9569C18.1541 71.1674 18.2382 71.2936 18.3643 71.4199C18.4063 71.462 18.4903 71.504 18.4903 71.5461C18.4903 71.8828 18.8686 72.0091 18.9106 72.3037C19.1207 72.4299 19.1207 72.6825 19.2468 72.8087C19.2888 72.8508 19.3308 72.8929 19.3308 72.8929C19.583 73.2717 19.7931 73.6083 20.0453 73.9871C20.2974 74.3659 20.4655 74.8709 21.0118 74.913C21.0539 74.913 21.0959 75.0393 21.1379 75.1234C20.4655 75.2918 19.9612 74.8709 19.3308 74.7868C19.1207 74.7447 18.8686 74.7447 18.6584 74.7026C18.6164 74.7026 18.5324 74.6605 18.4903 74.6605C18.2382 74.6605 17.986 74.6605 17.7339 74.6605C17.4817 74.6605 17.2716 74.6184 17.0194 74.5763C16.7673 74.5342 16.5572 74.6605 16.347 74.6605C16.0529 74.6605 15.8007 74.7447 15.6326 74.9972C15.5906 75.0393 15.5486 75.0814 15.5486 75.0814C15.4645 75.2076 15.3805 75.6706 15.4645 75.7547C15.7167 76.0072 15.8848 76.3018 16.263 76.386C16.4311 76.4281 16.5572 76.4702 16.6832 76.5964C16.8093 76.7227 17.0615 76.7648 17.2296 76.6806C17.3136 76.6385 17.3556 76.6385 17.4397 76.6385C18.1961 76.5964 18.9526 76.6806 19.7091 76.5123C20.3394 76.386 20.9698 76.1756 21.6422 76.0493C21.9784 76.0914 22.3146 76.2177 22.6508 76.3019C22.7769 76.3439 22.945 76.3018 23.1131 76.2598C23.2392 76.2177 23.2392 76.0914 23.2392 75.9652C23.2392 75.9231 23.2812 75.881 23.3232 75.881C23.4493 75.7968 23.4493 75.6706 23.4073 75.5864C23.3232 75.418 23.3232 75.0393 23.1131 74.7868ZM22.3987 74.2396C22.4407 74.2817 22.4407 74.2817 22.4827 74.3238C22.5247 74.408 22.5668 74.4922 22.5668 74.5763C22.5248 74.4922 22.4827 74.3659 22.3987 74.2396Z" fill="#F75163"/>
<path d="M82.9164 40.7392C82.8324 40.5288 82.6643 40.3604 82.4542 40.2342C82.244 40.15 82.118 40.15 81.9078 40.2342C81.4456 40.4025 80.9412 40.9917 80.6891 41.4968C80.563 41.7493 80.437 41.9597 80.3109 42.2122C80.2689 42.2543 80.2688 42.2964 80.2688 42.3385C80.1848 42.5489 80.0587 42.7593 79.9747 42.9698C79.9326 43.0539 79.8906 43.1802 79.9326 43.2223C79.9326 43.2644 79.9747 43.3485 79.9747 43.3906C79.9326 43.559 79.8906 43.6852 79.7225 43.7694C79.7225 43.7694 79.7225 43.8115 79.7225 43.8536C79.6805 44.0219 79.6385 44.1903 79.6385 44.3165C79.6385 44.4849 79.5544 44.5691 79.4283 44.5691C79.2602 44.5691 79.2603 44.6532 79.2603 44.7795C79.2603 44.8216 79.2603 44.8636 79.2603 44.8636C79.2603 44.8636 79.2603 44.8636 79.2603 44.9057C79.0081 43.9378 78.6719 43.0119 78.2937 42.1281C78.3357 42.1701 78.3777 42.1701 78.4618 42.086C78.5038 42.0018 78.5458 41.9176 78.5038 41.8335C78.4618 41.7072 78.3777 41.623 78.2937 41.5389C78.2096 41.3705 78.1256 41.2442 78.1256 41.0338C78.0835 40.8655 77.9574 40.6971 77.8734 40.5288C77.8314 40.4446 77.8734 40.3184 77.8314 40.2763C77.4952 39.8554 77.243 39.3925 76.9068 38.9716C76.6967 38.7191 76.4445 38.5507 76.1924 38.3403C76.1083 38.2561 75.9403 38.2982 75.8142 38.2141C75.6041 38.1299 75.4359 38.2141 75.3099 38.2982C75.0577 38.4666 74.8476 38.7191 74.8896 39.0979C74.8896 39.2241 74.8896 39.3083 74.8896 39.5187C74.8476 39.8133 74.9316 40.15 75.0997 40.4446C75.1418 40.4867 75.1838 40.5709 75.1838 40.613C75.1418 40.8234 75.2678 40.9917 75.3519 41.2022C75.52 41.5809 75.562 42.0018 75.8142 42.3385C75.7722 42.6752 75.9823 42.8856 76.1084 43.1381C76.2765 43.4748 76.4025 43.8536 76.6126 44.1903C76.7807 44.4849 76.9489 44.8216 77.159 45.1162C77.4532 45.537 77.6633 46 77.9154 46.4629C77.9995 46.5892 78.0415 46.6733 78.1256 46.7575V46.7996C78.1676 47.0521 78.2937 47.1784 78.5038 47.1363C78.7559 47.3467 78.9661 47.3046 79.1762 47.0521C79.3443 46.8838 79.4283 46.6313 79.5544 46.4208C79.5544 46.3787 79.5544 46.3787 79.5544 46.3367C79.6385 46.2104 79.7225 46.0841 79.8066 45.9579C80.0167 45.5791 80.2268 45.2424 80.521 44.9478C80.9413 44.527 81.3195 44.064 81.8238 43.6852C82.2861 43.3486 82.6223 42.8856 82.7904 42.3385C83.0005 42.2122 83.0005 42.0018 82.9585 41.8335C82.9585 41.7072 82.9585 41.623 82.9585 41.5389C82.9585 41.4968 82.9585 41.4968 82.9164 41.4547C82.9164 41.3705 82.9164 41.3284 82.9164 41.2442C82.9164 41.2442 82.9164 41.2443 82.9164 41.2022C82.9585 41.2022 83.0005 41.118 83.0005 41.118C82.9164 40.9497 82.9585 40.8234 82.9164 40.7392ZM77.6633 40.8234C77.7053 40.9076 77.7894 40.9917 77.7894 41.118C77.7473 40.9917 77.7053 40.9076 77.6633 40.8234ZM77.8734 41.3284C77.9995 41.4126 78.0835 41.5389 78.0415 41.7072C78.0415 41.7072 78.0415 41.7072 78.0415 41.7493C77.9995 41.623 77.9574 41.4547 77.8734 41.3284Z" fill="#F75163"/>
<path d="M29.1227 79.1217C29.4169 79.2479 29.5429 79.1217 29.5009 78.785C29.4589 78.4904 29.4169 78.2379 29.2488 77.9854C29.1647 77.9012 29.0806 77.7749 29.1227 77.6487C29.1227 77.6066 29.1227 77.5645 29.0807 77.5224C28.7445 77.1857 28.6184 76.6807 28.1981 76.3861C28.1141 76.0915 27.8619 75.9652 27.6518 75.7548C27.4417 75.5444 27.1475 75.4181 26.9794 75.2498C26.7693 75.0394 26.5171 75.0394 26.349 74.8289C26.265 74.7027 26.1389 74.7027 26.0128 74.7027C25.9288 74.7027 25.8447 74.6606 25.7607 74.6185C25.6346 74.5764 25.4245 74.6606 25.2984 74.7447C25.2143 74.7447 25.1723 74.7868 25.0883 74.871C24.9202 75.0814 24.9202 75.2919 25.0462 75.5444C25.2984 76.0915 25.5926 76.5965 26.0548 76.9753C26.0548 77.0174 26.0969 77.0174 26.0969 77.0595C26.223 77.1857 26.265 77.3541 26.265 77.5645C26.265 77.6066 26.1389 77.6487 26.1389 77.6487C25.8867 77.3962 25.5085 77.4382 25.2143 77.2699C24.8361 77.0595 24.4579 77.0174 24.0796 76.807C23.9956 76.7649 23.8695 76.7228 23.7855 76.7228C23.6594 76.6807 23.5754 76.807 23.6174 76.9332C23.6594 77.0174 23.7435 77.0595 23.7855 77.1016C23.9116 77.1857 24.0796 77.1857 24.1637 77.2699C24.3318 77.4382 24.5419 77.4803 24.7521 77.5645C24.7941 77.5645 24.8781 77.6066 24.9201 77.6487C25.0883 77.817 25.3404 77.9012 25.5926 77.8591C25.7186 77.8591 25.8447 77.817 25.8868 77.8591C26.0549 78.1116 26.307 78.0275 26.5171 78.0275C26.6852 78.0275 26.8113 78.1116 26.9374 78.1537C27.1055 78.2379 27.1055 78.4062 26.9374 78.4904C26.6852 78.5746 26.4331 78.6587 26.1809 78.7008C26.0128 78.7008 25.9288 78.7429 25.8027 78.8692C25.8027 78.8692 25.7607 78.8692 25.7607 78.9113C25.6766 78.9533 25.5926 78.9954 25.5085 79.0375C25.2984 79.2059 25.0883 79.3321 25.1303 79.6267C25.1723 79.9213 25.3824 80.0476 25.6346 80.1318C25.7186 80.1738 25.8027 80.1738 25.8868 80.2159H25.9288H25.9708C26.0128 80.2159 26.0548 80.258 26.0548 80.258C26.0548 80.3001 26.1809 80.3001 26.2229 80.3001C26.265 80.3001 26.307 80.3001 26.349 80.3001C26.349 80.3001 26.349 80.3001 26.391 80.3001C26.5171 80.3001 26.6852 80.3001 26.8113 80.3001C26.8953 80.3001 26.9794 80.3001 27.0635 80.3001C27.1475 80.3001 27.2736 80.258 27.3576 80.2159C27.7779 80.0897 28.1561 79.8792 28.5764 79.6267C28.9966 79.4584 29.1227 79.29 29.1227 79.1217ZM28.9966 78.5746C28.5764 77.7329 28.03 76.9332 27.4417 76.1757C27.7358 76.4703 28.072 76.7649 28.2822 77.1437C28.4503 77.4383 28.6604 77.6908 28.7445 78.0275C28.7865 78.1537 28.8705 78.28 28.9546 78.3641C28.9966 78.4483 29.0807 78.4904 28.9966 78.5746Z" fill="#F75163"/>
<path d="M79.5538 54.6697C79.3857 54.5013 79.1756 54.3751 78.9655 54.4593C78.6293 54.6276 78.3351 54.7539 78.0409 54.9643C77.4105 55.301 76.8642 55.7218 76.4019 56.2689C76.3179 56.3952 76.2338 56.5635 76.0657 56.6056C76.0657 56.5635 76.0237 56.5636 76.0237 56.5215C75.9817 55.5535 75.6875 54.6276 75.2673 53.7859C75.3933 53.8701 75.4354 53.9963 75.4774 54.1647C75.4774 54.2909 75.6035 54.4172 75.6875 54.5434H75.8556C75.8556 54.4172 75.8976 54.2067 75.8136 54.1647C75.6035 53.9963 75.6035 53.7438 75.4774 53.5334C75.3093 53.1967 75.1412 52.9021 74.931 52.5654C74.6789 52.1866 74.4688 51.8499 74.1326 51.5974C73.9224 51.4291 73.7123 51.4712 73.5862 51.6816C73.5442 51.7658 73.5022 51.892 73.4181 51.9341C73.208 52.0183 73.208 52.2287 73.208 52.397C73.208 52.5233 73.208 52.6496 73.208 52.7758C73.208 53.2809 73.208 53.2808 73.4181 53.6596C73.4602 53.7438 73.5022 53.828 73.5022 53.9121C73.4602 54.1226 73.5442 54.2909 73.7123 54.4593C73.7543 54.5013 73.7964 54.5434 73.7964 54.5855C73.7964 54.8801 74.0065 55.0905 74.0905 55.301C74.1326 55.4272 74.1746 55.5956 74.3007 55.6797C74.4688 55.806 74.4267 55.9744 74.5108 56.1006C74.6789 56.3952 74.889 56.6898 75.0151 56.9844C75.1832 57.3632 75.4354 57.6578 75.6035 57.9945C75.7295 58.2891 76.1078 58.2891 76.3179 58.0366C76.4019 57.9103 76.4439 57.784 76.612 57.742V57.6999C76.7381 57.6999 76.8642 57.6999 76.9903 57.6157C77.6207 57.2369 78.251 56.9423 78.8394 56.5215C78.7554 56.6056 78.6293 56.7319 78.5032 56.8161C78.4612 56.8161 78.4191 56.8582 78.4191 56.9002C78.4191 56.9423 78.4612 57.0265 78.4612 57.0265C78.5452 57.0265 78.6293 57.0265 78.6713 56.9844C78.8394 56.8582 78.9655 56.6898 79.1756 56.6477C79.2176 56.6477 79.3017 56.5636 79.3017 56.5215C79.3017 56.311 79.5118 56.311 79.5959 56.2269C79.6799 56.1006 79.7219 55.9323 79.7219 55.7639C79.7219 55.7218 79.806 55.7218 79.806 55.6797C80.0161 55.3431 80.0161 55.2589 79.806 54.9643C79.7219 54.8801 79.6379 54.7959 79.5538 54.6697ZM79.0915 56.3531C79.1756 56.269 79.2596 56.1848 79.3017 56.1006C79.2596 56.2269 79.1756 56.311 79.0915 56.3531ZM79.4698 55.7639C79.4698 55.7639 79.4277 55.806 79.4277 55.8481C79.4698 55.6377 79.4698 55.3851 79.3857 55.0905V55.0485C79.5118 55.1747 79.5538 55.301 79.6379 55.4272C79.7639 55.5114 79.5538 55.6377 79.4698 55.7639Z" fill="#F75163"/>
<path d="M33.9986 79.1637C33.7885 78.8691 33.6624 78.5325 33.4943 78.1958C33.3262 77.9012 33.2001 77.6487 33.032 77.3541C32.6958 76.7648 32.4016 76.1756 31.9814 75.6706C31.6452 75.2498 31.309 74.8289 30.8047 74.6185C30.7206 74.5764 30.6786 74.5764 30.5945 74.5343C30.4264 74.3659 30.1743 74.408 30.0062 74.4501C29.67 74.5343 29.5439 75.1656 29.7961 75.4181L29.8381 75.4602C29.8801 75.5444 29.9221 75.6285 29.9642 75.7127C29.9642 75.7548 29.9642 75.7969 29.9642 75.839C29.9221 76.0073 29.9642 76.1336 30.1323 76.2598C30.1743 76.3019 30.2163 76.344 30.2583 76.3861C30.3424 76.6386 30.3004 76.9332 30.6366 77.0174C30.5946 77.2699 30.8467 77.354 30.9728 77.5224C31.0148 77.5645 31.0148 77.6066 31.0148 77.6486C31.1829 77.8591 31.351 78.0695 31.5191 78.2799C31.5191 78.2799 31.5611 78.2799 31.6032 78.2799V78.2379C31.9814 78.7429 32.4437 79.1637 32.99 79.5846C32.948 79.5846 32.948 79.5846 32.9059 79.6267C32.7799 79.6267 32.6958 79.6267 32.5697 79.6267C32.1915 79.6688 31.7713 79.5846 31.393 79.7109C31.0568 79.8371 30.7626 79.9634 30.3844 79.9213C30.3004 79.9213 30.2163 80.0055 30.1743 80.0476C30.0062 80.2159 29.8381 80.3001 29.628 80.3001C29.5859 80.3001 29.5439 80.3422 29.5439 80.3422C29.5019 80.5526 29.2918 80.6367 29.1657 80.8051C29.0816 80.8893 29.0396 81.0155 29.0816 81.1418C28.9556 81.5206 29.1657 81.8993 29.67 81.9835C29.9222 82.0256 30.2163 81.9835 30.4685 81.8993C30.5945 81.8993 30.7206 81.8993 30.8047 81.8993C30.8467 81.8993 30.9308 81.8993 30.9308 81.8993C31.0148 81.8152 31.1409 81.731 31.2249 81.6889C31.1829 81.6889 31.0989 81.6468 31.0568 81.6468C31.2249 81.6047 31.393 81.5626 31.5611 81.5206C31.8553 81.4785 32.1075 81.3522 32.3176 81.1418C32.6958 80.7209 33.1161 80.5105 33.6624 80.4684C33.9146 80.4263 34.0826 80.3001 34.1247 80.1317C34.2507 80.0055 34.2928 79.8371 34.2507 79.7109C34.1247 79.5004 34.0826 79.3321 33.9986 79.1637Z" fill="#F75163"/>
<path d="M29.2918 3.66081C29.3758 3.78707 29.5019 3.87125 29.586 3.95542C29.7541 4.12376 29.9642 4.25001 30.2164 4.20792C30.3845 4.20792 30.5526 4.20792 30.7207 4.20792C31.1829 4.25001 31.6452 4.20793 32.1075 4.03958C32.3596 3.91332 32.4437 3.74499 32.3176 3.49247C32.2756 3.4083 32.1915 3.28204 32.1075 3.19786C32.0234 3.11369 31.8974 3.11369 31.8553 2.98743C31.8133 2.86118 31.6872 2.8191 31.6452 2.69284H31.6032C31.4771 2.65075 31.309 2.65075 31.267 2.56657C31.225 2.44032 31.3931 2.35615 31.4771 2.27198C31.5191 2.18781 31.5612 2.14571 31.6452 2.10363C31.8974 2.01945 32.0234 1.80903 32.1495 1.64069C32.3596 1.43026 32.4857 1.13566 32.4437 0.798971C32.4017 0.588541 32.1495 0.378106 31.9814 0.504364C31.7713 0.630622 31.5612 0.714789 31.351 0.841047C31.267 0.841047 31.1829 0.925229 31.0989 1.0094C30.8888 1.13566 30.6786 1.304 30.4685 1.43026C30.0482 1.72486 29.7541 2.14571 29.4179 2.52449C29.3758 2.56657 29.3758 2.69283 29.4179 2.73492C29.4599 2.777 29.586 2.777 29.628 2.73492C29.712 2.69283 29.7121 2.5245 29.7961 2.48241C29.8381 2.44032 29.9222 2.39823 29.9642 2.35614C29.9642 2.39823 29.9222 2.39824 29.9222 2.44032C29.7541 2.65075 29.628 2.90326 29.3338 2.98743C29.0817 3.07161 29.0397 3.36621 29.2498 3.53456C29.2498 3.61873 29.2498 3.66081 29.2918 3.66081Z" fill="#F75163"/>
<path d="M5.38017 27.44C5.67434 27.3558 5.63233 27.1875 5.63233 26.9771C5.63233 26.8508 5.50624 26.6825 5.38017 26.6825C5.00194 26.6404 4.66574 26.7246 4.32954 26.8929C4.16143 26.9771 3.99335 27.1454 3.82525 27.2717C3.78323 27.3138 3.69917 27.3558 3.7412 27.3979C3.65715 27.4821 3.57308 27.5663 3.48903 27.6504C3.44701 27.5242 3.32095 27.44 3.19487 27.4821C3.11082 27.5242 3.02676 27.6084 3.02676 27.7346C3.02676 27.903 3.02676 28.0292 3.02676 28.1976C2.81664 28.1976 2.81663 28.4922 2.64853 28.5343C2.39637 28.6605 2.35437 28.8709 2.35437 29.1235C2.35437 29.2497 2.35436 29.376 2.27031 29.5022C2.18626 29.2076 2.1022 28.9551 2.01815 28.6605C2.06017 28.6605 2.10222 28.6605 2.14424 28.6184C2.18627 28.5763 2.2703 28.4922 2.22827 28.4501C2.18625 28.3238 2.14424 28.1976 2.06019 28.0713C1.93411 27.903 1.63992 27.903 1.47182 28.0292C1.30372 28.1555 1.21968 28.3238 1.21968 28.4501C1.13563 28.5343 1.0936 28.6605 1.13563 28.8289C1.21968 29.2497 1.30372 29.6706 1.47182 30.0494C1.55587 30.2598 1.76601 30.386 1.97613 30.386C1.97613 30.7227 1.85005 31.0173 1.89208 31.354C1.89208 31.4803 1.89208 31.5644 1.89208 31.6907C1.89208 31.7328 1.93411 31.7749 1.97613 31.817C2.01816 31.7749 2.1022 31.7749 2.1022 31.7328C2.14423 31.5645 2.22827 31.3961 2.22827 31.2278C2.22827 30.9752 2.31232 30.7227 2.4384 30.5123C2.52245 30.386 2.52245 30.2598 2.52245 30.1335C2.52245 29.7968 2.48044 29.5022 2.77462 29.2497C2.81665 29.2076 2.77461 29.1235 2.81664 29.0814C3.02676 28.7447 3.19485 28.3238 3.69916 28.3238C3.78321 28.3238 3.86726 28.2817 3.90928 28.2397C4.03536 28.0713 4.16145 28.0292 4.37158 28.0713C4.45563 28.0713 4.49765 28.0292 4.5817 27.9871C4.70778 27.903 4.83385 27.8188 5.00195 27.7767C5.25411 27.7767 5.21207 27.4821 5.38017 27.44Z" fill="#F75163"/>
<path d="M75.3934 59.6779C75.3513 59.6779 75.3093 59.6779 75.2673 59.6779C75.2253 59.72 75.1832 59.72 75.1832 59.7621C75.1832 60.0567 75.0151 60.225 74.805 60.3933C74.805 60.3933 74.763 60.4354 74.763 60.4775C74.763 60.6459 74.6789 60.8563 74.5108 60.9405C74.3427 61.0667 74.3847 61.2772 74.2587 61.4034C74.0485 61.6559 73.8804 61.9505 73.6703 62.2451C73.4182 62.6239 73.124 63.0027 72.8718 63.4235C72.6197 63.8023 72.2835 64.139 72.0734 64.5599C71.9893 64.7282 71.8212 64.8965 71.6951 65.0649C71.6111 65.1491 71.527 65.2332 71.527 65.3595C71.485 65.5699 71.2329 65.6962 71.1908 65.9487C71.1908 65.9908 71.0227 65.9908 71.0227 66.0329C70.9807 66.2433 70.8126 66.4116 70.6865 66.5379C70.6865 66.5379 70.6865 66.6221 70.7285 66.6642C70.7285 66.6642 70.7706 66.6642 70.8126 66.6642C70.8546 66.6642 70.8546 66.6221 70.8966 66.6221C70.9387 66.4116 71.1908 66.4116 71.2328 66.2433C71.3169 66.0329 71.485 65.9487 71.569 65.8224C71.9052 65.3595 72.2835 64.8545 72.6197 64.3915C72.9979 63.8865 73.3761 63.3394 73.7544 62.8343C73.8384 62.7081 73.9645 62.6239 74.0065 62.4556C74.3427 61.7822 74.805 61.1509 75.0572 60.4354C75.1412 60.225 75.2253 59.9725 75.3093 59.8041C75.3093 59.72 75.3093 59.6779 75.3093 59.6358C75.4354 59.72 75.3934 59.6779 75.3934 59.6779Z" fill="#F75163"/>
<path d="M43.0758 80.3001C42.9497 80.3001 42.7816 80.3841 42.6556 80.3841C42.2353 80.4261 41.8571 80.3421 41.4368 80.4682C41.1427 80.5522 40.8065 80.4682 40.5123 80.4682C40.1761 80.4682 39.8819 80.5522 39.5457 80.5522C38.7472 80.5522 37.9067 80.5522 37.1082 80.5522C36.73 80.5522 36.3518 80.5942 36.0156 80.3841C35.9735 80.3421 35.8475 80.3841 35.8054 80.3841C35.5533 80.3841 35.3011 80.3841 35.049 80.3841C34.9649 80.3841 34.9229 80.4261 34.8389 80.4261C34.8809 80.4261 34.9649 80.4261 35.007 80.4682C35.1751 80.5522 35.3432 80.5942 35.4692 80.5522C35.8054 80.5102 36.0996 80.6363 36.3938 80.7623C36.4358 80.8044 36.4778 80.8464 36.5619 80.8464C36.9401 80.8464 37.3604 80.9725 37.7386 80.9725C38.5791 80.9304 39.4196 80.9725 40.2181 80.9725C40.6383 80.9725 41.0586 80.8044 41.4789 80.8884C41.5209 80.8884 41.5209 80.8884 41.5629 80.8464C42.1092 80.6783 42.6556 80.5522 43.1599 80.5942C43.37 80.5942 43.5381 80.5942 43.7062 80.5942C43.8323 80.5942 43.9163 80.5522 44.0424 80.5102C44.0844 80.5102 44.0844 80.4682 44.1264 80.4682C44.0844 80.4682 44.0844 80.4261 44.0424 80.4261C43.7062 80.3421 43.412 80.258 43.0758 80.3001Z" fill="#F75163"/>
<path d="M4.49724 24.7045C4.58129 24.6624 4.62331 24.6624 4.70736 24.6203C5.00154 24.494 5.33773 24.494 5.58988 24.2415C5.96811 24.2836 6.22028 24.0732 6.47243 23.8627C6.7666 23.6523 7.01876 23.4419 7.18686 23.1052C7.27091 22.8527 7.22888 22.6423 7.01875 22.5581C6.9347 22.516 6.80861 22.5581 6.64051 22.516C6.55646 22.516 6.43039 22.516 6.30432 22.6002C6.13622 22.7264 5.96811 22.8527 5.80001 22.9789C5.58988 23.0631 5.37976 23.1473 5.16963 23.2315C4.91748 23.3156 4.79142 23.5261 4.66535 23.6944C4.53927 23.9048 4.58128 24.0732 4.74938 24.2415C4.66533 24.3257 4.53927 24.4099 4.37117 24.3678C4.37117 24.3678 4.28711 24.4099 4.28711 24.4519C4.28711 24.5361 4.2871 24.6203 4.32912 24.7045C4.37115 24.7466 4.45521 24.7045 4.49724 24.7045ZM6.68255 22.8948C6.68255 22.8948 6.72457 22.9789 6.72457 23.021C6.72457 22.9789 6.72458 22.9369 6.68255 22.8948Z" fill="#F75163"/>
<path d="M2.98326 25.1253C3.02529 25.2095 3.0673 25.2937 3.15135 25.3779C3.15135 25.3779 3.19339 25.3779 3.19339 25.4199C3.23541 25.5462 3.31945 25.5883 3.44553 25.6725C3.48755 25.7145 3.48756 25.7566 3.52958 25.7566C3.52958 25.7987 3.48754 25.8829 3.48754 25.925C3.48754 26.1775 3.48756 26.43 3.31946 26.6404C3.23541 26.7246 3.36149 26.8088 3.40351 26.8509C3.44554 26.8088 3.5716 26.7246 3.5716 26.6825C3.5716 26.5142 3.65564 26.3879 3.69767 26.2196C3.73969 26.1775 3.7397 26.1354 3.78172 26.0933C3.78172 26.0091 3.78174 25.925 3.73971 25.8829C3.73971 25.8829 3.73969 25.8829 3.69767 25.8408C3.78172 25.8408 3.82374 25.8408 3.9078 25.7987C4.0759 25.7145 4.11792 25.5883 4.11792 25.4199C4.11792 24.9149 4.15996 24.4099 4.07591 23.9469C4.07591 23.9469 4.0759 23.989 4.11792 23.989C4.11792 24.0311 4.20199 24.0311 4.24402 24.0311C4.28604 24.0311 4.32805 23.989 4.32805 23.9469C4.32805 23.7786 4.37009 23.6102 4.24402 23.484C4.20199 23.3998 4.15996 23.3156 4.15996 23.2315C4.15996 22.9369 3.99187 22.7685 3.82377 22.6423C3.52959 22.3898 3.36147 22.3898 3.06729 22.6423C3.02527 22.6844 2.98324 22.7685 2.94122 22.8527C2.89919 22.9369 2.85716 23.021 2.85716 23.1473C2.81514 23.6523 2.81514 24.1574 2.94122 24.6203C2.89919 24.7886 2.94124 24.957 2.98326 25.1253Z" fill="#F75163"/>
<path d="M35.6798 3.95609C35.8059 3.95609 35.9319 3.87192 36.016 3.74566C36.1421 3.57732 36.058 3.49314 36.016 3.40897C35.8899 3.28271 35.974 3.07228 35.8899 2.94602C35.8479 2.90393 35.4276 2.56724 35.3856 2.52516C35.3016 2.44099 35.2595 2.48307 35.3016 2.56725C35.3016 2.60933 35.3436 2.6935 35.3436 2.73559C35.1335 2.65142 34.9654 2.52516 34.7552 2.39891C34.6712 2.35682 34.6291 2.27265 34.5871 2.23056C34.7132 2.27265 34.8393 2.27264 34.9654 2.31473C35.0074 2.35681 35.1755 2.39891 35.1755 2.23056C35.1755 2.06222 35.5117 2.02013 35.3016 1.8097C35.2595 1.8097 35.3016 1.68345 35.3436 1.64136C35.5537 1.55719 35.6378 1.34675 35.8059 1.26258C36.058 1.09424 35.974 0.841719 36.016 0.63129C36.058 0.505032 35.9319 0.33669 35.8479 0.252518C35.8059 0.210432 35.7218 0.168352 35.6377 0.126266C35.5957 0.0841796 35.5537 0.042086 35.5117 0C35.4697 0 35.3856 0 35.3436 0C35.3016 0.042086 35.2175 0.126268 35.1755 0.168354C35.1335 0.168354 35.1335 0.21043 35.0914 0.21043C34.7552 0.462946 34.5451 0.799641 34.335 1.17841C34.335 1.2205 34.335 1.22049 34.335 1.26258C34.1249 1.55718 33.9567 1.89387 33.6205 2.14639L33.5785 2.18848C33.5365 2.18848 33.4945 2.18848 33.4104 2.18848C33.3264 2.18848 33.2423 2.18848 33.2003 2.18848C33.1583 2.18848 33.1162 2.27265 33.0742 2.27265C33.1162 2.31474 33.1162 2.35682 33.1583 2.35682C33.2844 2.35682 33.4104 2.35682 33.4945 2.44099C33.5365 2.52517 33.5785 2.60934 33.6626 2.65142C33.7046 2.69351 33.7886 2.73559 33.8307 2.77768C33.8727 2.81976 33.9568 2.90393 33.9988 2.94602C34.1669 3.19853 34.4611 3.28271 34.6292 3.49314C34.9233 3.49314 35.0914 3.70357 35.3436 3.78774C35.4276 3.914 35.5537 3.95609 35.6798 3.95609ZM35.4697 0.967985C35.5117 0.925899 35.5117 0.925899 35.4697 0.967985C35.5117 0.967985 35.5117 1.01007 35.5117 1.01007C35.5117 1.05216 35.4697 1.05215 35.4697 1.09424C35.3436 1.2205 35.2595 1.38884 35.1335 1.5151C35.0914 1.55718 35.0494 1.55719 35.0074 1.59927C35.1334 1.34676 35.3016 1.13633 35.4697 0.967985Z" fill="#F75163"/>
<path d="M24.4593 4.79781C24.4593 4.33487 24.081 3.99817 23.6608 3.99817C23.1985 3.99817 22.8623 4.37695 22.8623 4.79781C22.8623 5.26076 23.2405 5.59744 23.6608 5.59744C24.123 5.59744 24.4593 5.26076 24.4593 4.79781Z" fill="#F75163"/>
<path d="M19.0377 8.20678C19.3739 8.20678 19.626 7.95427 19.626 7.61758C19.626 7.28089 19.3739 7.02838 19.0377 7.02838C18.7015 7.02838 18.4493 7.28089 18.4493 7.61758C18.4073 7.95427 18.7015 8.20678 19.0377 8.20678Z" fill="#F75163"/>
<path d="M67.3668 68.2634C66.9045 68.2634 66.5684 68.6422 66.5684 69.0631C66.5684 69.526 66.9466 69.8627 67.3668 69.8627C67.7871 69.8627 68.1653 69.4839 68.1653 69.0631C68.1653 68.6422 67.7871 68.2634 67.3668 68.2634Z" fill="#F75163"/>
<path d="M63.2905 73.1033C63.6155 73.1033 63.8789 72.8395 63.8789 72.5141C63.8789 72.1887 63.6155 71.9249 63.2905 71.9249C62.9656 71.9249 62.7021 72.1887 62.7021 72.5141C62.7021 72.8395 62.9656 73.1033 63.2905 73.1033Z" fill="#F75163"/>
<path d="M48.1616 79.3741C47.8254 79.3741 47.5732 79.6267 47.5732 79.9633C47.5732 80.3 47.8254 80.5526 48.1616 80.5526C48.4978 80.5526 48.7499 80.3 48.7499 79.9633C48.7499 79.6267 48.4978 79.3741 48.1616 79.3741Z" fill="#F75163"/>
<path d="M51.6068 78.5323C51.3966 78.5323 51.1865 78.7007 51.1865 78.9532C51.1865 79.1636 51.3546 79.3741 51.6068 79.3741C51.8169 79.3741 52.027 79.2057 52.027 78.9532C52.027 78.7428 51.8169 78.5323 51.6068 78.5323Z" fill="#F75163"/>
<path d="M6.55657 20.9159C6.72467 20.9159 6.85073 20.7898 6.85073 20.6217C6.85073 20.4536 6.72467 20.3275 6.55657 20.3275C6.38847 20.3275 6.26239 20.4536 6.26239 20.6217C6.22037 20.7898 6.38847 20.9159 6.55657 20.9159Z" fill="#F75163"/>
<path d="M7.85833 18.8537C8.02643 18.8537 8.15251 18.7276 8.15251 18.5595C8.15251 18.3914 8.02643 18.2653 7.85833 18.2653C7.69023 18.2653 7.56415 18.3914 7.56415 18.5595C7.52212 18.7276 7.69023 18.8537 7.85833 18.8537Z" fill="#F75163"/>
</svg>
